<?xml version="1.0" encoding="UTF-8"?>
<svg id="Layer_2" xmlns="http://www.w3.org/2000/svg" viewBox="0 0 857.6 1091.99">
  <defs>
    <style>
      .cls-1 {
        font-family: CooperBlack, 'Cooper Black';
        font-size: 152px;
      }

      .cls-1, .cls-2 {
        fill: #002a00;
      }

      .cls-3 {
        letter-spacing: -.02em;
      }

      .cls-4 {
        letter-spacing: -.02em;
      }

      .cls-5 {
        letter-spacing: -.01em;
      }
    </style>
  </defs>
  <g id="Layer_1-2" data-name="Layer_1">
    <g>
      <g>
        <path class="cls-2" d="M259.92,39.98c35.29-17.41,72.01-29.24,110.46-35.35,32.79-5.21,65.74-5.96,98.82-2.54,55.71,5.77,107.33,23.64,155.4,52,46.94,27.7,85.89,64.13,117.9,108.25,35.55,49.01,58.65,103.25,69.84,162.64,5.94,31.5,7.33,63.37,5.12,95.22-4.69,67.73-24.33,130.78-61.93,187.7-24.96,37.79-55.84,70.15-92.11,97.23-48.92,36.52-103.58,60.25-163.56,71.41-34.84,6.48-69.96,7.97-105.37,4.95-65.08-5.56-124.75-26.57-179.41-61.88-41.59-26.87-76.31-61.04-105.3-101.19-21.86-30.28-38.34-63.24-50.4-98.46-10.15-29.64-15.87-60.18-18.68-91.4-4.29-47.59.55-94.28,12.99-140.21,11.53-42.55,30.66-81.57,55.81-117.76,26.74-38.47,58.67-71.76,96.8-99.05,16.83-12.04,34.71-22.3,53.62-31.56M670.83,659.39c2.34-2.25,4.67-4.5,7.01-6.75,56.36-54.24,92.22-119.33,104.82-196.91,5.42-33.37,6.35-66.8,2.83-100.37-3.7-35.35-12.38-69.47-26.57-102.04-31.37-71.98-79.81-129.35-146.97-170.54-63.9-39.2-133.16-56.55-208.02-51.29-32.53,2.29-63.99,9.32-94.59,20.54-43.79,16.05-83.11,39.51-117.59,70.89-29.88,27.19-54.51,58.65-74.86,93.53-28.59,49-43.23,102.15-46.47,158.46-1.31,22.79-.31,45.63,2.62,68.41,4.54,35.31,14.11,69.11,29.08,101.32,27.08,58.27,67.28,105.78,119.94,142.39,76.32,53.05,161.07,73.61,253.24,62.57,40.79-4.89,79.53-17.28,116.25-35.79,28.66-14.45,54.79-32.6,79.28-54.4Z"/>
        <path class="cls-2" d="M268.88,231.85c14.4.96,28.52,2.96,40.86,11.3,12.55,8.49,18.15,20.32,16.71,35.42-.19,2-.16,3.92,1.9,4.82,1.92.84,4.07.87,5.95-.14,1.93-1.03,1.42-2.81.97-4.52-5.64-21.53-1.79-41.98,7.67-61.55,8.02-16.59,17.84-32.17,28.77-48.15,14.13,13.8,26.24,28.61,35.89,45.28,9.77,16.87,16.84,34.68,15.66,55.06,2.96-4.82,5.78-9.72,8.9-14.43,14.62-22.06,34.96-36.97,59.13-47.1,3.84-1.61,5.34.27,6.53,3.29,6.9,17.47,12.94,35.19,15.74,53.84.68,4.54,1.08,9.13,1.41,13.71.27,3.64,1.53,5.53,5.68,5.28,5.78-.35,11.6-.19,17.4-.03,3.51.1,5.15-1.06,5.71-4.79,5.25-34.45,25.06-56.91,57.32-68.96,19.93-7.45,40.57-11.6,61.7-13.66,3.99-.39,6.24.63,5.3,4.87-4.87,21.94-9.04,44.11-18.77,64.63-2.84,5.98-6.2,11.72-9.5,17.9,7.63,3.4,9.28,9.73,8.92,17.26-.27,5.79-.08,11.6-.02,17.4.1,8.99-3.56,14.32-12.36,16.13-5.34,1.09-6.8,3.47-7.26,8.82-1.88,21.54-4.53,43.02-6.75,64.53-2.55,24.73-4.85,49.49-7.42,74.22-2.52,24.21-5.31,48.4-7.85,72.61-2.24,21.35-4.15,42.72-6.48,64.06-1.35,12.33-1.46,24.87-5.3,36.84-9.03,28.2-32.08,45.37-61.75,45.48-43.51.17-87.03.04-130.55.04-26.28,0-52.56.18-78.84-.03-29.44-.24-53.99-19.18-61.4-47.28-3.05-11.57-3.44-23.57-4.72-35.42-2.4-22.18-4.64-44.37-6.95-66.56-2.47-23.73-4.95-47.45-7.44-71.18-2.61-24.9-5.26-49.8-7.85-74.71-2.19-21.01-4.47-42.01-6.37-63.04-.43-4.74-1.57-7.39-6.79-8.18-9.22-1.4-13.25-6.34-13.53-15.68-.2-6.82-.21-13.65-.1-20.48.14-9.53,5.56-14.83,15.01-14.85,13.99-.03,27.99.02,41.98-.04,6.02-.02,7.06-1.35,5.18-7.11-4.67-14.33-2.62-29.08-2.73-44.23.19-.55.43-.69.43-.69M304.9,319.41c-26.61-.02-53.22-.05-79.84-.02-1.74,0-4.2-.8-4.85,1.6-.67,2.48,1.16,4.05,3.17,5.28,3.59,2.2,7.58,1.72,11.47,1.72,115.66.06,231.32.1,346.98.12,15.52,0,31.05-.04,46.57-.2,6.22-.06,9.19-2.54,10.02-8.5-110.91,0-221.7,0-333.51,0M323.06,574.14c-1.27-17.85-2.48-35.71-3.81-53.55-2.3-31.11-4.66-62.21-7.01-93.32-.96-12.75-1.93-25.5-2.97-38.24-.35-4.22-3.01-6.53-7.03-6.73-3.34-.17-6.81,4.11-6.58,7.91.6,9.69,1.4,19.37,2.14,29.06,1.6,20.72,3.29,41.43,4.8,62.15,1.2,16.49,2.14,33,3.29,49.49,1.61,23.11,3.31,46.21,4.98,69.32.65,9.01,1.27,18.03,2.02,27.03.35,4.17,2.65,7.57,6.85,7.55,4.24-.02,6.41-3.41,6.75-7.66.05-.68.03-1.37-.01-2.05-1.09-16.67-2.19-33.34-3.44-50.96M548.32,622.97c.84-11.71,1.75-23.42,2.52-35.14,1.23-18.69,2.27-37.4,3.57-56.08,1.44-20.55,3.12-41.08,4.64-61.62,1.3-17.49,2.6-34.98,3.75-52.49.63-9.52,1.02-19.05,1.41-28.58.16-3.92-2.5-6.07-5.8-6.78-3.2-.68-5.38,1.6-6.82,4.32-1.07,2.02-1.01,4.26-1.14,6.48-.75,12.75-1.5,25.51-2.39,38.25-1.55,22.08-3.23,44.15-4.79,66.23-1.22,17.33-2.3,34.67-3.52,52-1.81,25.64-3.7,51.28-5.5,76.93-.27,3.78,3.44,8.53,6.72,8.45,4.35-.1,6.09-3.19,6.77-7.02.24-1.34.28-2.71.57-4.96M360.2,435.85c.91,19.42,1.94,38.83,2.7,58.25,1.2,30.67,2.17,61.35,3.34,92.03.52,13.63,1.24,27.25,1.93,40.87.24,4.64,3.51,8.31,6.94,7.99,3.58-.34,6.81-4.41,6.64-8.49-.87-20.61-1.82-41.22-2.65-61.83-1.44-35.44-2.86-70.88-4.19-106.33-.84-22.16-1.49-44.32-2.26-66.49-.21-6.06-3.24-9.93-7.54-9.85-4.17.08-6.36,3.45-6.2,9.93.36,14.32.81,28.64,1.29,43.93M478.81,620.62c-.02,2.39-.12,4.78-.03,7.16.14,3.91,2.22,6.72,6.01,7.12,3.63.38,5.93-2.18,7.01-5.56.41-1.27.57-2.67.61-4.02.78-26.05,2.15-52.09,2.87-78.14.72-25.73,2.19-51.42,2.57-77.16.13-9.03.87-18.04,1.2-27.06.64-17.71,1.19-35.42,1.77-53.14.07-2.09-.2-4.11-1.95-5.58-2.03-1.72-4.18-3.06-6.96-1.75-3.73,1.76-4.8,4.95-4.92,8.81-1.42,43.78-2.81,87.56-4.37,131.33-1.15,32.35-2.53,64.68-3.82,98.01M422.93,404.95c-.12,16.54-.21,33.09-.36,49.63-.51,56.62,1.05,113.24.02,169.86-.11,5.79,2.94,10.47,6.74,10.61,4.23.16,6.92-3.92,6.92-10.59,0-25.93,0-51.87,0-77.8-.02-51.7-.04-103.39-.07-155.09,0-6.02-2.62-9.62-6.81-9.57-4.19.05-6.77,3.64-6.79,9.72-.01,4.09.17,8.18.35,13.23M469.85,232.13c-9.71,7.19-18.86,14.93-25.48,25,8.35,6.6,12.62,16.05,19.67,23.1,2.17-1.52,2.41-3.57,2.95-5.52,2.7-9.84,5.43-19.68,8.2-29.5.67-2.36,1.45-4.78,4.84-3.67,2.93.96,2.67,3.02,2.03,5.37-1.89,6.89-3.81,13.78-5.52,20.73-.87,3.54-2.48,6.99-2.15,10.65,1.95.99,3.25.02,4.61-.65,4.43-2.19,8.75-4.65,13.32-6.48,2.42-.97,5.58-4.81,7.81-.69,2.33,4.3-2.22,5.22-4.91,6.65-2.91,1.54-6.11,2.61-8.74,5.41,4.68,2.26,9.15,1.12,13.46,1.29,4.16.16,5.3-2.27,4.66-6-1.36-7.87-2.34-15.83-4.13-23.6-2.63-11.43-6.7-22.4-12.33-33.47-6.18,3.81-11.95,7.36-18.28,11.37M271.52,496.09c.48,5.25.91,10.51,1.46,15.76,1.6,15.22,3.25,30.43,4.88,45.64.26,2.42.4,5.28,3.83,4.75,3.15-.48,3.06-3.35,2.82-5.73-1.46-14.56-3.01-29.12-4.54-43.67-1.86-17.6-3.74-35.2-5.6-52.8-1.96-18.62-3.9-37.24-5.84-55.86-.69-6.61-1.47-13.21-1.98-19.83-.57-7.42,3.39-12.82,10.96-15.27,1.94-.63,4.51-.81,3.83-3.66-.6-2.55-3.06-2.43-5.09-2.11-1.65.26-3.35.74-4.83,1.5-4.75,2.44-7.78,6.39-9.85,11.3-3.49,8.28-.81,16.45.03,24.66,3.22,31.47,6.43,62.94,9.92,95.31M590.71,399.93c-.52,6.28-.94,12.56-1.57,18.83-2.26,22.69-4.63,45.37-6.87,68.06-2.2,22.35-4.28,44.72-6.45,67.08-.3,3.12-2.05,7.62,2.25,8.13,4.72.55,4.04-4.63,4.38-7.7,1-8.96,1.46-17.98,2.38-26.96,2.24-22.01,4.85-43.99,6.86-66.02,2.12-23.21,4.36-46.41,7.15-69.55,1.68-13.91-5.17-25.92-16.63-28.63-2.32-.55-4.82-.97-5.66,1.69-.98,3.09,1.92,3.52,4,4.03,6.57,1.61,10.11,5.85,11.26,12.39,1.05,6-.69,11.82-1.11,18.66M608.03,257.61c11.48-10.44,23.84-19.99,34.2-31.58-.65-.72-1.29-1.43-1.94-2.15-19.4,17.23-38.8,34.47-58.21,51.7-.47-.38-.94-.76-1.41-1.15,1.21-6.81,2.51-13.61,3.59-20.45,1.08-6.88,3.01-13.71,2.5-21.56-2.12,1.97-13.57,47.82-13.37,51.04,2.2.76,3.53-.83,4.92-1.96,1.93-1.58,4.1-2.45,6.52-2.65,4.41-.35,8.83-.73,13.25-.86,9.54-.27,19.09-.21,28.59-1.25,1.66-.18,3.95.76,4.66-2.84-13.23-1.94-26.44.72-40.49,0,5.4-6.61,11.37-10.85,17.19-16.29M350.84,248.55c6.6,6.41,13.1,12.94,19.86,19.18,3.33,3.08,6.35,5.96,6.16,11.06-.06,1.75.05,4.35,2.75,4.92,2.8.6,3.82-1.56,5.06-3.41,7.32-10.89,14.13-22.12,22.03-32.63,1.21-1.61,3.08-3.33.93-7.19-10.17,11.06-16.5,24.19-25.44,35.89-.75-1.27-1.14-1.65-1.2-2.08-2.44-16.01-3.07-32.18-4.24-48.31-.2-2.78.26-5.78-4.15-8.72-1.08,16.76,2.9,32.24,2.51,49.15-10.71-8.72-17.91-19.27-29.45-26.69.43,4.82,3.13,6.17,5.18,8.84M292.92,245.99c-3.13-.76-6.23-1.63-9.39-2.26-3.56-.71-5.59.67-5.55,4.52.06,4.76-.02,9.53.14,14.29.27,7.79,3.02,10.05,10.63,8.98,4.2-.59,4.91-2.2,2.43-5.75-1.75-2.51-3.72-4.87-5.39-7.43-1.19-1.83-2.63-4.11-.13-5.84,2.19-1.51,3.81.33,5.15,1.9,2.31,2.72,4.52,5.53,6.8,8.28,1.13,1.37,1.87,3.37,4.25,2.93,5.86-13.94,5.26-13.29-5.84-18.4-.77-.35-1.58-.62-3.12-1.24M433.14,274.19c-1.15,2.78-2.94,5.38-2.42,9.25,8.02.55,15.96.94,24.42-.37-3.35-8.71-10.96-13.75-13.84-21.7-3.27,3.39-5.49,7.8-8.16,12.82M316.35,265.93c-1.03-2.03-1.52-4.52-4.19-5.23-5.62,7.71-5.93,13.59-1.04,18.53,2.84,2.87,5.22,2.38,6.04-1.54.77-3.65.75-7.4-.81-11.77M295.48,283.86c.51,0,1.02.03,1.53-.02,2.14-.21,5,.19,4.89-3.01-.11-3.04-2.65-3.53-5.24-3.47-2.89.07-5.77.04-8.66.12-1.57.04-3.29.27-3.51,2.19-.2,1.72,1.17,2.73,2.59,3.44,2.4,1.2,5,.61,8.41.75Z"/>
        <path class="cls-2" d="M268.52,232.07c-15.91,5.03-31.15,11.47-46.59,17.37-1.43.55-2.86,1.11-4.3,1.64-12.41,4.51-17.48,2.06-21.54-10.49-1.58-4.86-3.45-9.68-4.48-14.66-2.61-12.62,4.49-26.17,17.07-31.78,11.67-5.2,23.62-9.79,35.57-14.33,4.15-1.58,5.9-3.8,5.61-8.33-.72-11.33,4.79-18.72,15.21-22.79,20.01-7.81,39.94-15.85,60.04-23.42,5.45-2.05,7.79-4.49,7.85-10.86.25-23.11,11.14-43.21,34.96-52.01,9.44-3.48,18.72-7.37,28.19-10.76,28.76-10.29,57.05,2.95,68.1,31.76,1.09,2.83,2,5.73,3.11,8.95,7.53-1.13,14.03-4.61,20.83-7.13,6.71-2.49,13.27-5.39,20.19-7.31,16.04-4.45,32.21,3.51,38.29,19,1.43,3.64,2.63,7.39,3.74,11.15,2.8,9.53.72,14.06-8.54,17.66-18.9,7.37-37.89,14.53-56.83,21.79-4.46,1.71-8.86,3.57-13.37,5.13-3.3,1.15-3.91,2.84-2.71,6.15,6.14,16.89-.86,35-13.68,42.25-2.04,1.15-2.76,2.74-2.27,5.12.52,2.49.76,5.05.94,7.6.21,2.94-1.57,4.36-4.25,4.78-2.65.42-4.08-1.27-4.07-3.47.02-8.22-3.39-13.37-10.93-17.45-6.95-3.76-10.66-11.23-13-19-1.86-6.19-2-6.13-8.18-3.75-5.25,2.02-10.51,4.02-15.8,5.94-7.12,2.6-8.38,2-12.44-6.3,51.88-19.84,103.7-39.66,155.85-59.61-2.45-3.56-4.43-1.77-6.1-1.14-35.38,13.44-70.75,26.91-106.1,40.46-14.17,5.43-28.3,10.97-42.38,16.62-2.8,1.12-4.57.82-6.67-1.47-8.7-9.49-10.31-9.72-16.03,1.88-4.74,9.62-12.04,13.82-21.59,17.37-42.99,15.97-85.7,32.68-128.49,49.18-2.09.81-4.57,1.35-5.63,3.71.22.52.44,1.04.66,1.56,47.59-18.18,95.19-36.35,142.78-54.53l.99,1.3c-3.87,4.52-3.22,11.33-11.1,14.11-24.26,8.54-48.12,18.21-72.34,27.67-.21.23-.45.37-.56.45M364.94,109.57c22.99-8.85,45.98-17.7,69.12-26.62-5.07-8-16.94-13.15-24.91-10.54-12.79,4.19-25.43,8.93-37.6,14.69-8.04,3.8-13.95,16.53-11.69,23.83,1.62.28,2.96-.54,5.09-1.37M323.51,150.18c20.02-7.79,40.09-15.45,60.05-23.39,19.85-7.9,40.18-14.67,60.38-24.27-3.7-2.19-5.6-.56-7.56.2-32.9,12.77-65.78,25.58-98.67,38.39-23.99,9.34-47.98,18.67-71.94,28.05-2.24.88-4.9,1.45-6.13,5.61,21.7-8.34,42.42-16.3,63.88-24.58M443,171.93q2.92,20.68,6.53,22.77c.26-10.66-2.2-20.42-3.72-31.24-3.94,2.55-2.57,5.3-2.8,8.47Z"/>
        <path class="cls-2" d="M179.7,459.02c6.27,6.94,10.52,14.93,15.64,22.31,1.37,1.97-.38,3.03-1.87,4-1.97,1.28-3.8,1.56-5.31-.64-3.18-4.64-6.55-9.17-9.45-13.98-2.82-4.68-6.23-7.81-11.66-9.82-20.27-7.52-34.61-28.74-35.1-50.3-.38-16.87,2.65-33.19,7.17-49.34,1.08-3.88,2.5-4.93,5.83-1.86,10.93,10.04,21.9,20.05,31.85,31.08,18.31,20.3,19.26,46.55,5.41,67.37-2.19-.3-2.21-2.31-2.8-3.76-5.25-12.77-10.41-25.58-15.68-38.35-.8-1.94-1.17-4.39-3.84-4.83-2.37,1.29-1.19,2.94-.58,4.45,5.25,12.95,10.51,25.89,15.79,38.83.84,2.07,1.73,4.14,4.61,4.84Z"/>
        <path class="cls-2" d="M569.07,146.29c5-1.33,9.6-2.58,14.23-3.69,3.21-.78,5.48.21,5.61,3.85.68,19.41,1.79,38.81-5.69,57.49-6.99,17.43-26.77,31.43-45,26.51-4.11-1.11-7.09.38-9.22,4.28-1.79,3.27-4.24,6.17-6.44,9.21-1.45,2.01-3.25,2.29-5.32.93-2.06-1.36-2.55-3.14-1.29-5.26,1.92-3.22,3.88-6.42,5.88-9.59,1.22-1.93,1.23-3.52-.19-5.56-10.88-15.6-10.04-33.22,1.45-48.57,11.63-15.54,27.91-23.49,45.98-29.59M568.98,157.26c-8.29,3.13-16.59,6.24-23.77,11.62-1.34,1-3.14,1.99-2.57,4.02,1.77,6.3,2.72,12.86,5.87,19.26.96-1.12,1.69-1.82,2.24-2.63,4.1-6.07,8.23-12.12,12.2-18.27,1.68-2.6,3.71-2.83,6.06-1.38,2.52,1.56,1.3,3.47.18,5.26-1.27,2.02-2.57,4.01-3.83,6.04-3.27,5.3-7.62,9.93-10.46,16.36,5.58.37,10.62.55,15.63,1.1,2.87.32,4.23-.45,5.18-3.35,3.88-11.77,3.21-23.86,2.93-35.93-.03-1.45.36-3.12-1.24-4.36-2.71-.22-5.1,1.29-8.43,2.25M539.14,187.19c-1.36-2.79-.94-6.42-3.77-8.59-12.07,9.96-16.55,30.31-6.53,39.84,4.96-4.12,5.07-4.62,3.68-10.27-.85-3.46-1.54-6.97-2.07-10.49-.26-1.73.07-3.57,2.37-3.83,2.14-.24,2.84,1.2,3.44,3,.87,2.57.87,5.65,3.42,7.55,2.65-2.5,3.31-4.93,2.04-8.09-1.07-2.67-1.57-5.56-2.59-9.13M539.27,220.66c14.41,4.53,27.74-6.03,30.59-15.1-6.63-1.45-14.26-3.07-19.68-.81-5.27,2.2-9.03,9.09-10.91,15.92Z"/>
        <path class="cls-2" d="M675.19,430.79c7.62-8.03,14.98-15.8,22.57-23.81-3.92-2.45-5.04-.02-6.28,1.25-7.03,7.18-13.92,14.51-20.89,21.75-1.15,1.19-1.95,2.86-4.57,3.2-3-5.99-3.25-12.46-1.91-18.93,2.32-11.27,8.78-19.87,18.44-25.94,9.84-6.19,20.62-10.53,31.17-15.32.73-.33,1.6-.35,2.4-.51,2.22,2.44,1.53,5.42,1.78,7.93,1.49,14.8,2.81,29.71-6.19,42.99-7.43,10.97-17.78,17.26-31.12,17.8-4.32.17-7.55,1.26-9.81,5.04-1.22,2.04-2.56,4.09-4.23,5.75-2.19,2.19-3.22,7.7-8.03,4.04-4.83-3.68.4-6.17,1.78-8.84,3.42-6.64,9.52-10.98,14.9-16.41Z"/>
        <path class="cls-2" d="M658.78,510.6c8.64-6.28,16.72-12.74,26.37-17.87,2.51,6.74,3.06,13.17,4.11,19.45,1.97,11.85,2.96,23.69-2.3,35.12-4.67,10.15-11.96,17.59-22.85,20.35-5.99,1.52-9.96,4.72-13.16,9.59-1.49,2.27-3.28,4.35-4.92,6.53-1.6,2.13-3.43,1.86-5.35.53-1.9-1.31-2.1-2.99-.87-4.86,2.35-3.55,4.48-7.28,7.66-10.19,11.11-10.17,16.09-24.25,23.55-36.75.66-1.1.93-2.38-.33-3.18-1.7-1.09-2.5.4-3.15,1.54-4.58,8.17-9.06,16.4-13.66,24.56-1.73,3.07-3.69,6.02-6.12,9.95-5.46-8.74-7.59-17.19-6.31-26.33,1.64-11.77,8.19-20.72,17.33-28.44Z"/>
        <path class="cls-2" d="M618.84,772.95c8.64-6.28,16.72-12.74,26.37-17.87,2.51,6.74,3.06,13.17,4.11,19.45,1.97,11.85,2.96,23.69-2.3,35.12-4.67,10.15-11.96,17.59-22.85,20.35-5.99,1.52-9.96,4.72-13.16,9.59-1.49,2.27-3.28,4.35-4.92,6.53-1.6,2.13-3.43,1.86-5.35.53-1.9-1.31-2.1-2.99-.87-4.86,2.35-3.55,4.48-7.28,7.66-10.19,11.11-10.17,16.09-24.25,23.55-36.75.66-1.1.93-2.38-.33-3.18-1.7-1.09-2.5.4-3.15,1.54-4.58,8.17-9.06,16.4-13.66,24.56-1.73,3.07-3.69,6.02-6.12,9.95-5.46-8.74-7.59-17.19-6.31-26.33,1.64-11.77,8.19-20.72,17.33-28.44Z"/>
        <path class="cls-2" d="M182.36,517.82c8.26,5.18,16.49,9.76,24.09,15.22,12.58,9.04,17.62,24.24,13.11,37.45-.71,2.07-1.38,4.2-3.58,5.99-7.07-8.66-13.34-17.9-22.03-26.57-.78,4.51,1.36,6.22,2.69,8.22,7.46,11.21,17.58,19.84,27.68,28.5,2.03,1.75,3.8,3.53.95,6.28-1.72,1.66-3.11,1.87-4.83.37-1.16-1.01-2.28-2.06-3.39-3.11-4.15-3.94-8.02-6.84-14.76-7.12-15.78-.65-28.63-15.19-30.16-32.39-.98-10.92.29-21.78,2.24-32.55.2-1.1.94-2.1,1.4-3.08,2.63.05,4.35,1.57,6.6,2.78Z"/>
      </g>
      <text class="cls-1" transform="translate(157.01 902.84)"><tspan class="cls-3" x="0" y="0">N</tspan><tspan x="123.8" y="0">atu</tspan><tspan class="cls-5" x="383.34" y="0">r</tspan><tspan x="462.98" y="0">e </tspan><tspan class="cls-4" x="-132.37" y="151">F</tspan><tspan class="cls-5" x="-35.51" y="151">r</tspan><tspan x="44.12" y="151">esh Bins</tspan></text>
    </g>
  </g>
</svg>