<?xml version="1.0" encoding="UTF-8"?>
<svg id="Layer_2" xmlns="http://www.w3.org/2000/svg" viewBox="0 0 857.6 336.9">
  <defs>
    <style>
      .cls-1 {
        font-family: CooperBlack, 'Cooper Black';
        font-size: 152px;
      }

      .cls-1, .cls-2 {
        fill: #002a00;
      }

      .cls-3 {
        letter-spacing: -.02em;
      }

      .cls-4 {
        letter-spacing: -.02em;
      }

      .cls-5 {
        letter-spacing: -.01em;
      }
    </style>
  </defs>
  <g id="Layer_1-2" data-name="Layer_1">
    <g>
      <path class="cls-2" d="M618.84,17.87c8.64-6.28,16.72-12.74,26.37-17.87,2.51,6.74,3.06,13.17,4.11,19.45,1.97,11.85,2.96,23.69-2.3,35.12-4.67,10.15-11.96,17.59-22.85,20.35-5.99,1.52-9.96,4.72-13.16,9.59-1.49,2.27-3.28,4.35-4.92,6.53-1.6,2.13-3.43,1.86-5.35.53-1.9-1.31-2.1-2.99-.87-4.86,2.35-3.55,4.48-7.28,7.66-10.19,11.11-10.17,16.09-24.25,23.55-36.75.66-1.1.93-2.38-.33-3.18-1.7-1.09-2.5.4-3.15,1.54-4.58,8.17-9.06,16.4-13.66,24.56-1.73,3.07-3.69,6.02-6.12,9.95-5.46-8.74-7.59-17.19-6.31-26.33,1.64-11.77,8.19-20.72,17.33-28.44Z"/>
      <text class="cls-1" transform="translate(157.01 147.76)"><tspan class="cls-3" x="0" y="0">N</tspan><tspan x="123.8" y="0">atu</tspan><tspan class="cls-5" x="383.34" y="0">r</tspan><tspan x="462.98" y="0">e </tspan><tspan class="cls-4" x="-132.37" y="151">F</tspan><tspan class="cls-5" x="-35.51" y="151">r</tspan><tspan x="44.12" y="151">esh Bins</tspan></text>
    </g>
  </g>
</svg>